<svg xmlns="http://www.w3.org/2000/svg" viewBox="0 0 819.3 921.9"><title>2</title><g id="Слой_2" data-name="Слой 2"><path d="M444.39,115.53,562.44,69.19l257,655.34L667.56,784.25l-59.47,67.53L325.42,593.17,435.75,875l-59,67.25L258.44,989.48m58.9-69L435.75,875M317.34,920.53m9.73-325.85-1.65-1.51M667.56,784.25,250.92,403.67l75.17,191.22m282,256.89,154.33-60.45,57-66.8M59.83,265.92,1.33,333,258.44,989.48l58.9-69L60.06,265.77l.38-.15,150.15-59.21L631.5,594.5l-187.11-479L386,181.5,500.16,473M388,861.5m55.5-756.83" transform="translate(-0.76 -68.54)" fill="none" stroke="#555" stroke-miterlimit="10"/></g></svg>